# xmcd CD database file
#
# Track frame offsets:
#	182
#	21410
#	49685
#	68007
#	86535
#	106387
#	130085
#	162732
#	194057
#
# Disc length: 2848 seconds
#
# Revision: 3
# Processed by: cddbd v1.5.1PL2 Copyright (c) Steve Scherf et al.
# Submitted via: CDex 1.51
#
DISCID=7d0b1e09
DTITLE=Rory Gallagher - Tatoo volume 1
DYEAR=1900
DGENRE=Blues
TTITLE0=Tatoo'd Lady
TTITLE1=Cradle Rock
TTITLE2=20 - 20 Vision
TTITLE3=They Don't Make Like You Anymore
TTITLE4=Livin' Like A Trucker
TTITLE5=Sleep On A Clothes-Line
TTITLE6=Who's That Coming
TTITLE7=A Million Miles Away
TTITLE8=Admit It
EXTD=
EXTT0=
EXTT1=
EXTT2=
EXTT3=
EXTT4=
EXTT5=
EXTT6=
EXTT7=
EXTT8=
PLAYORDER=
